<svg width="24" height="25" viewBox="0 0 24 25" fill="none" xmlns="http://www.w3.org/2000/svg">
<g id="icon_Chevron-Right.svg">
<path id="Vector" fill-rule="evenodd" clip-rule="evenodd" d="M9.22504 18.9698L14.814 14.7018C15.1577 14.4399 15.4362 14.1021 15.628 13.7149C15.8197 13.3277 15.9195 12.9014 15.9195 12.4693C15.9195 12.0372 15.8197 11.6109 15.628 11.2237C15.4362 10.8365 15.1577 10.4987 14.814 10.2368L9.224 5.96875L8.078 7.45081L13.667 11.7278C13.7814 11.8145 13.8741 11.9266 13.938 12.0551C14.0018 12.1837 14.035 12.3252 14.035 12.4688C14.035 12.6123 14.0018 12.7539 13.938 12.8824C13.8741 13.011 13.7814 13.123 13.667 13.2098L8.078 17.4868L9.22504 18.9698Z" fill="#05141F"/>
</g>
</svg>
