<svg width="32" height="33" viewBox="0 0 32 33" fill="none" xmlns="http://www.w3.org/2000/svg">
<g id="icon_steering.svg">
<g id="&#234;&#183;&#184;&#235;&#163;&#185; 938">
<path id="&#237;&#140;&#168;&#236;&#138;&#164; 2287" fill-rule="evenodd" clip-rule="evenodd" d="M22.658 26.8674C24.0746 25.8789 25.255 24.5893 26.1145 23.0909C26.974 21.5925 27.4913 19.9225 27.6293 18.2007H19.2667C19.1353 18.841 18.8189 19.4286 18.3568 19.8908C17.8946 20.353 17.3069 20.6693 16.6667 20.8007V26.8674H22.658ZM15.3333 20.8007V26.8674H9.23201C7.81538 25.8788 6.63497 24.5892 5.77538 23.0908C4.91579 21.5925 4.39832 19.9226 4.26002 18.2007H12.7333C12.8647 18.841 13.1811 19.4286 13.6433 19.8908C14.1054 20.353 14.6931 20.6693 15.3333 20.8007ZM12.7333 16.8674C12.8864 16.1138 13.2952 15.4364 13.8905 14.9498C14.4859 14.4632 15.2311 14.1973 16 14.1973C16.7689 14.1973 17.5142 14.4632 18.1095 14.9498C18.7048 15.4364 19.1137 16.1138 19.2667 16.8674H27.6607C27.5581 13.8285 26.2789 10.9483 24.0929 8.83488C21.9069 6.72141 18.9853 5.53996 15.9447 5.53996C12.9041 5.53996 9.98244 6.72141 7.79646 8.83488C5.61048 10.9483 4.3312 13.8285 4.22867 16.8674H12.7333ZM23.0667 28.2007C25.4255 26.6656 27.2251 24.4093 28.1973 21.7682C29.1695 19.1271 29.2622 16.2425 28.4616 13.5444C27.661 10.8464 26.0099 8.47926 23.7545 6.7959C21.4991 5.11254 18.76 4.20313 15.9457 4.20312C13.1313 4.20313 10.3923 5.11254 8.13687 6.7959C5.88145 8.47926 4.23038 10.8464 3.42976 13.5444C2.62914 16.2425 2.72183 19.1271 3.69402 21.7682C4.66621 24.4093 6.46583 26.6656 8.82468 28.2007H23.0667ZM14 17.534C14 17.1385 14.1173 16.7517 14.3371 16.4229C14.5568 16.094 14.8692 15.8377 15.2347 15.6863C15.6001 15.5349 16.0022 15.4953 16.3902 15.5724C16.7781 15.6496 17.1345 15.8401 17.4142 16.1198C17.6939 16.3995 17.8844 16.7558 17.9616 17.1438C18.0387 17.5318 17.9991 17.9339 17.8478 18.2994C17.6964 18.6649 17.4401 18.9772 17.1112 19.1969C16.7823 19.4167 16.3956 19.534 16 19.534C15.4696 19.534 14.9609 19.3233 14.5858 18.9482C14.2107 18.5732 14 18.0645 14 17.534Z" fill="#697278"/>
</g>
</g>
</svg>
