<svg width="32" height="33" viewBox="0 0 32 33" fill="none" xmlns="http://www.w3.org/2000/svg">
<g id="icon_location.svg">
<g id="&#234;&#183;&#184;&#235;&#163;&#185; 3644">
<g id="Clip path group">
<mask id="mask0_11_220" style="mask-type:luminance" maskUnits="userSpaceOnUse" x="5" y="3" width="22" height="26">
<g id="a">
<path id="&#236;&#130;&#172;&#234;&#176;&#129;&#237;&#152;&#149; 2858" d="M5.00098 3.2002H26.404V28.8572H5.00098V3.2002Z" fill="white"/>
</g>
</mask>
<g mask="url(#mask0_11_220)">
<g id="&#234;&#183;&#184;&#235;&#163;&#185; 3643">
<path id="&#237;&#140;&#168;&#236;&#138;&#164; 6312" fill-rule="evenodd" clip-rule="evenodd" d="M8.981 6.88922C8.06567 7.78549 7.34804 8.8634 6.87425 10.0536C6.40046 11.2439 6.18101 12.5201 6.23 13.8002C6.23 16.4842 7.874 19.4002 9.907 21.9482C11.5488 23.9686 13.3779 25.8292 15.37 27.5052C15.4637 27.5856 15.5831 27.6297 15.7065 27.6297C15.8299 27.6297 15.9493 27.5856 16.043 27.5052C18.0326 25.8297 19.86 23.9704 21.501 21.9522C23.534 19.4032 25.177 16.4882 25.177 13.8042C25.177 8.08722 20.997 4.42522 15.701 4.42522C13.2286 4.35845 10.8243 5.24003 8.981 6.88922ZM8.144 6.00022C10.2137 4.13715 12.9171 3.13549 15.701 3.20022C21.621 3.20022 26.401 7.36022 26.401 13.8002C26.401 16.9252 24.524 20.1222 22.458 22.7142C20.7649 24.7957 18.8796 26.7132 16.827 28.4412C16.5132 28.7076 16.1151 28.8538 15.7035 28.8538C15.2919 28.8538 14.8938 28.7076 14.58 28.4412C12.5282 26.7137 10.6436 24.7969 8.951 22.7162C6.884 20.1242 5.007 16.9272 5.007 13.8002C4.95721 12.3534 5.21037 10.9122 5.75024 9.56893C6.29012 8.2257 7.10479 7.01014 8.142 6.00022H8.144Z" fill="#565F65"/>
<path id="&#237;&#140;&#168;&#236;&#138;&#164; 6313" fill-rule="evenodd" clip-rule="evenodd" d="M15.705 10.8441C15.1004 10.8441 14.5094 11.0234 14.0066 11.3593C13.5039 11.6952 13.1121 12.1726 12.8807 12.7312C12.6493 13.2898 12.5888 13.9045 12.7068 14.4975C12.8247 15.0905 13.1159 15.6352 13.5434 16.0627C13.9709 16.4902 14.5156 16.7814 15.1086 16.8993C15.7016 17.0173 16.3163 16.9567 16.8749 16.7254C17.4335 16.494 17.9109 16.1022 18.2468 15.5995C18.5827 15.0967 18.762 14.5057 18.762 13.9011C18.7622 13.4996 18.6832 13.102 18.5296 12.7311C18.376 12.3601 18.1508 12.023 17.8669 11.7392C17.583 11.4553 17.246 11.2301 16.875 11.0765C16.5041 10.9229 16.1065 10.8439 15.705 10.8441ZM11.426 13.9011C11.426 13.0548 11.677 12.2275 12.1472 11.5238C12.6173 10.8201 13.2856 10.2717 14.0675 9.94779C14.8494 9.62392 15.7098 9.53919 16.5398 9.70429C17.3699 9.8694 18.1323 10.2769 18.7307 10.8754C19.3292 11.4738 19.7367 12.2362 19.9018 13.0663C20.0669 13.8963 19.9822 14.7567 19.6583 15.5386C19.3344 16.3205 18.786 16.9887 18.0823 17.4589C17.3786 17.9291 16.5513 18.1801 15.705 18.1801C14.5702 18.1801 13.4818 17.7292 12.6793 16.9268C11.8768 16.1243 11.426 15.0359 11.426 13.9011Z" fill="#565F65"/>
</g>
</g>
</g>
</g>
</g>
</svg>
