<svg width="32" height="33" viewBox="0 0 32 33" fill="none" xmlns="http://www.w3.org/2000/svg">
<g id="icon_gift-box.svg">
<g id="&#234;&#183;&#184;&#235;&#163;&#185; 911">
<path id="&#237;&#140;&#168;&#236;&#138;&#164; 2257" fill-rule="evenodd" clip-rule="evenodd" d="M26.8334 27.0335V15.7002H28.1667V27.0335C28.1667 27.3872 28.0262 27.7263 27.7762 27.9763C27.5261 28.2264 27.187 28.3669 26.8334 28.3669H5.16671C4.81309 28.3669 4.47397 28.2264 4.22392 27.9763C3.97387 27.7263 3.83337 27.3872 3.83337 27.0335V16.2002H5.16671V27.0335H26.8334Z" fill="#697278"/>
<path id="&#237;&#140;&#168;&#236;&#138;&#164; 2258" fill-rule="evenodd" clip-rule="evenodd" d="M1.83337 10.3665C1.83337 10.0129 1.97387 9.6738 2.22392 9.42375C2.47397 9.1737 2.81309 9.0332 3.16671 9.0332H28.8334C29.187 9.0332 29.5261 9.1737 29.7762 9.42375C30.0262 9.6738 30.1667 10.0129 30.1667 10.3665V15.5332C30.1667 15.8868 30.0262 16.2259 29.7762 16.476C29.5261 16.726 29.187 16.8665 28.8334 16.8665H3.16671C2.81309 16.8665 2.47397 16.726 2.22392 16.476C1.97387 16.2259 1.83337 15.8868 1.83337 15.5332V10.3665ZM28.8334 10.3665H3.16671V15.5332H28.8334V10.3665Z" fill="#697278"/>
<path id="&#237;&#140;&#168;&#236;&#138;&#164; 2259" fill-rule="evenodd" clip-rule="evenodd" d="M16.6667 16.2002V27.7002H15.3334V16.2002H16.6667Z" fill="#697278"/>
<path id="&#237;&#140;&#168;&#236;&#138;&#164; 2260" fill-rule="evenodd" clip-rule="evenodd" d="M16.6667 10.3665H11.25C10.3439 10.3665 9.47486 10.0066 8.83411 9.3658C8.19336 8.72505 7.83337 7.85603 7.83337 6.94987C7.83337 6.04371 8.19336 5.17468 8.83411 4.53394C9.47486 3.89319 10.3439 3.5332 11.25 3.5332H11.5C12.8703 3.5332 14.1845 4.07753 15.1534 5.04647C16.1224 6.01541 16.6667 7.32958 16.6667 8.69987V10.3665ZM15.3334 9.0332V8.69987C15.3334 7.68321 14.9295 6.70819 14.2106 5.9893C13.4917 5.27041 12.5167 4.86654 11.5 4.86654H11.25C10.6975 4.86654 10.1676 5.08602 9.7769 5.47673C9.3862 5.86743 9.16671 6.39734 9.16671 6.94987C9.16671 7.5024 9.3862 8.03231 9.7769 8.42301C10.1676 8.81372 10.6975 9.0332 11.25 9.0332H15.3334Z" fill="#697278"/>
<path id="&#237;&#140;&#168;&#236;&#138;&#164; 2261" fill-rule="evenodd" clip-rule="evenodd" d="M16.6667 9.0332V7.94987C16.6667 7.13212 16.9915 6.34785 17.5698 5.76961C18.148 5.19138 18.9323 4.86654 19.75 4.86654H20.75C21.3026 4.86654 21.8325 5.08602 22.2232 5.47673C22.6139 5.86743 22.8334 6.39734 22.8334 6.94987C22.8334 7.5024 22.6139 8.03231 22.2232 8.42301C21.8325 8.81372 21.3026 9.0332 20.75 9.0332H16.6667ZM20.75 10.3665C21.6562 10.3665 22.5252 10.0066 23.166 9.3658C23.8067 8.72505 24.1667 7.85603 24.1667 6.94987C24.1667 6.04371 23.8067 5.17468 23.166 4.53394C22.5252 3.89319 21.6562 3.5332 20.75 3.5332H19.75C18.5787 3.5332 17.4553 3.99854 16.627 4.82682C15.7987 5.65511 15.3334 6.7785 15.3334 7.94987V10.3665H20.75Z" fill="#697278"/>
</g>
</g>
</svg>
